<?xml version="1.0" encoding="UTF-8"?>
<svg width="16px" height="16px" viewBox="0 0 12 12" version="1.1"
    xmlns="http://www.w3.org/2000/svg"
    xmlns:xlink="http://www.w3.org/1999/xlink">
    <g stroke="none" stroke-width="1">
        <g transform="translate(-580.000000, -14.000000)">
            <g transform="translate(580.000000, 10.000000)">
                <g transform="translate(0.000000, 4.000000)">
                    <path d="M5.68321906,1.72664472 L1.25534586,5.60894171 C1.19756685,5.65958536 1.12598122,5.6844721 1.05468564,5.6844721 C0.969989503,5.6844721 0.88581547,5.64937541 0.8256,5.58069033 C0.714682873,5.45422624 0.727271271,5.26180359 0.85379337,5.15088646 L5.78699503,0.825582597 C5.9046656,0.722377949 6.07944095,0.726200821 6.19248208,0.829106803 C6.19119128,0.827914795 6.18987963,0.826743785 6.18855785,0.825584038 L11.1217608,5.15088646 C11.2482829,5.26180359 11.2608713,5.45422624 11.1499541,5.58069033 C11.0897967,5.64937541 11.0055066,5.6844721 10.9208685,5.6844721 C10.8495729,5.6844721 10.7779873,5.65958536 10.7202083,5.60894171 L6.29233508,1.72664472 L6.29233508,9.76176133 C6.29233508,9.92993536 6.1559511,10.0663193 5.98777707,10.0663193 C5.81960304,10.0663193 5.68321906,9.92993536 5.68321906,9.76176133 L5.68321906,1.72664472 Z M6.27356627,0.949158957 C6.28632026,0.983727721 6.29253661,1.02003328 6.29233508,1.05623016 L6.29233508,1.05459282 C6.29233508,1.01612894 6.2852057,0.979332936 6.27219702,0.945452804 Z M10.6208412,11.2255773 L1.35473619,11.2255773 C1.18650414,11.2255773 1.05017818,11.0891934 1.05017818,10.9210193 C1.05017818,10.7528453 1.18650414,10.6164613 1.35473619,10.6164613 L10.6208412,10.6164613 C10.7890152,10.6164613 10.9253992,10.7528453 10.9253992,10.9210193 C10.9253992,11.0891934 10.7890152,11.2255773 10.6208412,11.2255773 Z" />
                </g>
            </g>
        </g>
    </g>
</svg>