<?xml version="1.0" encoding="UTF-8"?>
<svg width="22px" height="22px" viewBox="0 0 22 22" version="1.1"
    xmlns="http://www.w3.org/2000/svg"
    xmlns:xlink="http://www.w3.org/1999/xlink">
    <g stroke="none" stroke-width="1" fill="none" fill-rule="evenodd">
        <g transform="translate(-20.000000, -86.000000)">
            <g transform="translate(20.000000, 84.000000)">
                <g transform="translate(0.000000, 2.000000)">
                    <path d="M10.196852,12.4744002 C10.1858468,12.4075991 10.1801242,12.3390638 10.1801242,12.2692308 C10.1801242,11.7857182 10.4543567,11.3645259 10.8568291,11.150299 C10.8431172,10.0783465 10.8185214,7.89398357 10.8185214,6.01887829 L10.8185214,5.92307692 L10.9168012,5.92307692 C14.2779459,5.92307692 17.0124224,8.5802246 17.0124224,11.8462121 C17.0124224,15.1121996 14.2779459,17.7692308 10.9168012,17.7692308 C8.51247784,17.7692308 7.91337843,18.0927144 6.33778946,16.2108352 L6.27614015,16.1376439 L6.35071786,16.0769231 C8.1078759,14.6390928 9.44239234,13.2649147 10.196852,12.4744002 Z" fill="#9CC2FF"></path>
                    <path d="M1.94729077,12.191166 C1.94729077,16.97202 5.83736224,20.86174 10.6187639,20.86174 C15.4001655,20.86174 19.2902369,16.97202 19.2902369,12.191166 C19.2902369,7.41008079 15.4001655,3.52047644 10.6187639,3.52047644 C5.83736224,3.52047644 1.94729077,7.41008079 1.94729077,12.191166 Z M0.785913146,12.1796019 C0.774463596,10.1122775 1.44778968,8.05304794 2.68202808,6.37855795 L1.6461329,5.34287201 C1.42061145,5.10314703 1.42685666,4.74384866 1.65966419,4.52436095 C1.771731,4.41912712 1.91560211,4.36119069 2.06502453,4.36119069 C2.22196433,4.36119069 2.36814848,4.42456227 2.47686139,4.53985692 L3.44544708,5.49760044 C5.18427526,3.64085932 7.5323583,2.5376387 10.0631715,2.38822979 C10.062015,2.37643435 10.0612055,2.36371378 10.0612055,2.34995243 L10.0612055,1.16138833 L8.22476697,1.16138833 C7.90452651,1.16138833 7.6439625,0.900847863 7.6439625,0.580751986 C7.6439625,0.260540467 7.90452651,0 8.22476697,0 L13.0740675,0 C13.3932671,1.73549399e-29 13.6431911,0.250017083 13.6431911,0.569187828 C13.6431911,0.889399347 13.3826271,1.14982417 13.0625023,1.14982417 L11.1994527,1.14982417 L11.1994527,2.34995243 C11.1994527,2.36255736 11.1989901,2.37527793 11.1977179,2.38834543 C13.7138433,2.53786999 16.0449255,3.63264877 17.7686033,5.4741252 L18.6932412,4.54945517 C18.8009132,4.44190851 18.9460565,4.38281566 19.1019555,4.38281566 C19.2576231,4.38281566 19.4027664,4.44190851 19.5104384,4.54933953 C19.6177635,4.65665491 19.676746,4.80166944 19.676746,4.95778557 C19.676746,5.11378605 19.6177635,5.25880059 19.5104384,5.36600033 L18.5162936,6.3600553 C19.7609407,8.0309604 20.4399337,10.0968971 20.4284842,12.1801801 C20.4284842,17.5947499 16.0227203,22 10.6071987,22 C5.19167699,22 0.785913146,17.5945186 0.785913146,12.1796019 Z M5.583853,16.2295086 C5.48427661,16.1101665 5.43790015,15.9601793 5.45328187,15.8074168 C5.46877924,15.6548856 5.54418436,15.5151906 5.66585029,15.4138886 C5.77028407,15.3269261 5.89657608,15.2807851 6.03073242,15.2807851 C6.2038635,15.2807851 6.36832068,15.3589588 6.48189097,15.4954159 C7.51859571,16.7598408 9.05167894,17.4850291 10.6881551,17.4850291 C13.6840051,17.4850291 16.1213715,15.047883 16.1213715,12.0523036 C16.1213715,9.05672429 13.6840051,6.61969376 10.6881551,6.61969376 C10.3679146,6.61969376 10.1074663,6.35915329 10.1074663,6.03894177 C10.1074663,5.7188459 10.3679146,5.45830543 10.6881551,5.45830543 C14.3243704,5.45830543 17.2827491,8.4164169 17.2827491,12.0523036 C17.2827491,15.6819457 14.3192817,18.6348533 10.6765899,18.6348533 C8.69824635,18.6348533 6.84203137,17.7581745 5.583853,16.2295086 Z M10.0045347,13.3068706 L8.1052753,15.1162271 C7.98349371,15.2244677 7.84517389,15.2812477 7.70430973,15.2812477 C7.38406928,15.2812477 7.12362092,15.0207072 7.12362092,14.7006113 C7.12362092,14.5506242 7.18838605,14.3995963 7.30160938,14.2862676 L9.23084748,12.4483514 C9.16943885,12.2815678 9.13589674,12.1014202 9.13589674,11.91358 C9.13589674,11.0577167 9.83223758,10.3615544 10.6880626,10.3615544 C11.5441188,10.3615544 12.240344,11.0577167 12.240344,11.91358 C12.2463579,12.3230668 12.0908059,12.7097722 11.8022541,13.0023454 C11.5076884,13.3011632 11.1120429,13.4656056 10.6880626,13.4656056 C10.4429306,13.4656056 10.2108828,13.4084918 10.0045347,13.3068706 Z M10.29739,11.9212123 C10.3068735,12.1366526 10.4764193,12.3064144 10.6921104,12.315897 C10.7972381,12.3110401 10.8972771,12.2662868 10.9712944,12.1899634 C11.0450803,12.1137556 11.0832455,12.0128005 11.0788507,11.9059477 C11.0788507,11.6888884 10.9044475,11.512535 10.6900286,11.511263 C10.460575,11.5220176 10.2880222,11.7018403 10.29739,11.9212123 Z" fill="#4475DF"></path>
                </g>
            </g>
        </g>
    </g>
</svg>