<?xml version="1.0" encoding="UTF-8"?>
<svg width="13px" height="13px" viewBox="0 0 13 13" version="1.1"
    xmlns="http://www.w3.org/2000/svg"
    xmlns:xlink="http://www.w3.org/1999/xlink">
    <g stroke="none" stroke-width="1" fill="none" fill-rule="evenodd">
        <g transform="translate(-97.000000, -194.000000)">
            <g transform="translate(96.000000, 192.000000)">
                <g>
                    <path d="M13.1359779,7.37047653 C13.1359779,7.13900573 13.3288195,6.95127195 13.5665881,6.95127195 C13.8043567,6.95127195 13.9971983,7.13900573 13.9971983,7.37047653 L13.9971983,12.7983375 C13.9971983,14.012354 12.9826807,15 11.7356336,15 L3.261512,15 C2.01453664,15 0.999947253,14.012354 0.999947253,12.7983375 L0.999947253,4.20166249 C0.999947253,2.98771587 2.01453664,2 3.261512,2 L8.93394009,2 C9.17178046,2 9.36455029,2.18766392 9.36455029,2.41920459 C9.36455029,2.65074525 9.17178046,2.83840917 8.93394009,2.83840917 L3.261512,2.83840917 C2.48935615,2.83840917 1.86116764,3.4499588 1.86116764,4.20166249 L1.86116764,12.7983375 C1.86116764,13.5500412 2.48935615,14.1615908 3.261512,14.1615908 L11.7356336,14.1615908 C12.5077894,14.1615908 13.1359779,13.5500412 13.1359779,12.7983375 L13.1359779,7.37047653 Z M7.71012008,9.16182583 C7.54904694,8.99928743 7.54904694,8.73574351 7.71012008,8.57320511 L13.2957764,2.93673683 C13.4567808,2.77419843 13.7180864,2.77419843 13.8790908,2.93673683 C14.0402327,3.09927523 14.0402327,3.36281915 13.8790908,3.52535755 L8.29343447,9.16182583 C8.21293227,9.24312972 8.10733759,9.28378166 8.00181165,9.28378166 C7.89628571,9.28378166 7.79062228,9.24312972 7.71012008,9.16182583 Z" fill="#999999"></path>
                </g>
            </g>
        </g>
    </g>
</svg>