<?xml version="1.0" encoding="UTF-8"?>
<svg width="22px" height="22px" viewBox="0 0 22 22" version="1.1"
    xmlns="http://www.w3.org/2000/svg"
    xmlns:xlink="http://www.w3.org/1999/xlink">
    <g stroke="none" stroke-width="1" fill="none" fill-rule="evenodd">
        <g transform="translate(-390.000000, -240.000000)">
            <g transform="translate(390.000000, 237.000000)">
                <g transform="translate(0.000000, 3.000000)">
                    <rect fill-rule="nonzero" x="0" y="0" width="22" height="22" />
                    <path d="M19.106576,18.3102847 C19.106576,18.3584827 19.0589701,18.3978022 19.0005221,18.3978022 L3.16160941,18.3978022 C3.1031614,18.3978022 3.05555556,18.3584827 3.05555556,18.3102847 L3.05555556,4.70751753 C3.05555556,4.65921377 3.1031614,4.62 3.16160941,4.62 L7.0275279,4.62 C7.88530544,4.62 8.58331677,5.19594567 8.58331677,5.90390752 C8.58331677,7.42711418 10.9571286,9.51189165 12.8029143,9.51189165 L19.0005221,9.51189165 C19.0589701,9.51189165 19.106576,9.55110542 19.106576,9.59940918 L19.106576,18.3102847 Z" fill="#9CC2FF" />
                    <path d="M20.0059378,19.1520879 L20.0059378,8.2150611 C20.0059378,8.15112088 19.9518038,8.09901714 19.885103,8.09901714 L13.1047004,8.09901714 C11.0008458,8.09901714 9.28922103,6.45537055 9.28922103,4.43492923 C9.28922103,3.49590154 8.4937656,2.73186813 7.51584964,2.73186813 L2.11489699,2.73186813 C2.04819618,2.73186813 1.9940622,2.78385582 1.9940622,2.84791209 L1.9940622,19.1520879 C1.9940622,19.2161442 2.04819618,19.2681319 2.11489699,19.2681319 L19.885103,19.2681319 C19.9518038,19.2681319 20.0059378,19.2161442 20.0059378,19.1520879 Z M18.5936208,5.35248879 C18.5936208,4.96849934 18.1825408,4.65622505 17.6772097,4.65622505 L10.5092899,4.65622505 C10.6261372,5.93514549 11.7425298,6.93857758 13.1047004,6.93857758 L18.5936208,6.93857758 L18.5936208,5.35248879 Z M19.885103,6.93857758 C20.6191744,6.93857758 21.2142857,7.51009407 21.2142857,8.2150611 L21.2142857,19.1520879 C21.2142857,19.8570549 20.6191744,20.4285714 19.885103,20.4285714 L2.11489699,20.4285714 C1.3807048,20.4285714 0.785714286,19.8570549 0.785714286,19.1520879 L0.785714286,2.84791209 C0.785714286,2.14294505 1.3807048,1.57142857 2.11489699,1.57142857 L7.51584964,1.57142857 C8.82001954,1.57142857 9.9278329,2.37584527 10.3326294,3.49578549 L17.6772097,3.49578549 C18.8488238,3.49578549 19.8020895,4.32874901 19.8020895,5.35248879 L19.8020895,6.93857758 L19.885103,6.93857758 Z M9.25722345,15.6997802 C9.5835956,15.6997802 9.84826319,15.9643561 9.84826319,16.2908791 C9.84826319,16.6174022 9.5835956,16.881978 9.25722345,16.881978 L5.00173734,16.881978 C4.67536519,16.881978 4.4106976,16.6174022 4.4106976,16.2908791 C4.4106976,15.9643561 4.67536519,15.6997802 5.00173734,15.6997802 L9.25722345,15.6997802 Z" fill="#4475DF" />
                </g>
            </g>
        </g>
    </g>
</svg>