<?xml version="1.0" encoding="UTF-8"?>
<svg width="18px" height="18px" viewBox="0 0 18 18" version="1.1"
    xmlns="http://www.w3.org/2000/svg"
    xmlns:xlink="http://www.w3.org/1999/xlink">
    <g stroke="none" stroke-width="1" fill="none" fill-rule="evenodd">
        <g transform="translate(-922.000000, -31.000000)">
            <g transform="translate(922.000000, 31.000000)" fill="#999999">
                <path d="M14.4162427,3.29113384 C12.9315774,1.81395426 10.9573304,1 8.85727985,1 C4.52497055,1 1,4.504941 1,8.81254504 C1,11.9181708 2.84158142,14.6834467 5.61054107,15.9308587 L4.2690632,16.4007889 C3.98680571,16.4919253 3.83337109,16.7897987 3.9263285,17.0662545 C4.01928591,17.3427104 4.32350184,17.4930809 4.60575932,17.4019446 C4.6145427,17.3991666 4.62314309,17.3961198 4.63174348,17.3928937 L7.21744163,16.487355 C7.4970458,16.3895873 7.64261198,16.088219 7.54279256,15.8144515 C7.54270107,15.8142723 7.54260957,15.8140034 7.54251808,15.8137346 L7.53922431,15.8043252 C7.52961749,15.7251074 7.50198645,15.6492053 7.45816106,15.5819956 L6.61898257,13.2823485 C6.51962061,13.0086706 6.21265988,12.8658276 5.93333018,12.9631472 C5.93259824,12.9634161 5.93195778,12.9635953 5.93122583,12.9638641 C5.65171315,13.0617214 5.50596399,13.3630001 5.6058749,13.6368572 C5.6059664,13.6370365 5.60605789,13.6373053 5.60614938,13.6375741 L6.09975688,14.990819 C3.6851516,13.9215575 2.0759637,11.5167945 2.0759637,8.81272427 C2.0759637,5.08590164 5.11812299,2.05375847 8.85746284,2.05375847 C10.6675705,2.05375847 12.3686179,2.75569657 13.6494355,4.03053014 C14.9323576,5.30769365 15.63823,7.0057691 15.63823,8.81272427 C15.63823,11.4214463 14.1074521,13.824686 11.7372211,14.9346317 C11.4691451,15.0602691 11.3558762,15.3749897 11.4840586,15.6375556 C11.612424,15.9000318 11.9335662,16.0109727 12.2016422,15.8855146 C14.9428793,14.6012716 16.7142852,11.8247941 16.7142852,8.81272427 C16.7150172,6.72778979 15.8987121,4.76678999 14.4162427,3.29113384" transform="translate(8.857143, 9.214286) scale(-1, 1) translate(-8.857143, -9.214286) " />
            </g>
        </g>
    </g>
</svg>