<?xml version="1.0" encoding="UTF-8"?>
<svg width="16px" height="16px" viewBox="0 0 16 16" version="1.1"
    xmlns="http://www.w3.org/2000/svg"
    xmlns:xlink="http://www.w3.org/1999/xlink">
    <g stroke="none" stroke-width="1" fill="none" fill-rule="evenodd">
        <g transform="translate(-872.000000, -12.000000)" fill="#333333">
            <g transform="translate(872.000000, 12.000000)">
                <path d="M1.84677232,9.69355733 C1.84677232,9.94106888 1.63440182,10.1390442 1.38189431,10.1149959 C1.16164884,10.093996 1,9.89644398 1,9.67535173 L1,2.14348134 C1,1.51195854 1.51195854,1 2.14348134,1 L9.67535173,1 C9.89644398,1 10.093996,1.16164884 10.1149959,1.38172496 C10.1391289,1.63431714 9.94115356,1.84677232 9.69355733,1.84677232 L1.84677232,1.84677232 L1.84677232,9.69355733 Z M14.535122,5.88502102 C14.7875448,5.86097269 15,6.05894805 15,6.3064596 L15,13.8564509 C15,14.4879737 14.4880415,14.9999323 13.8565187,14.9999323 L6.32464827,14.9999323 C6.10347134,14.9999323 5.90608872,14.8382834 5.88508876,14.6180379 C5.86095575,14.3656151 6.05884644,14.1531599 6.30644267,14.1531599 L14.1532277,14.1531599 L14.1532277,6.32458053 C14.1532277,6.10348828 14.3148765,5.90602097 14.535122,5.88502102 Z M6.49715273,9.71703833 C6.50917689,9.74515117 6.51679785,9.76970757 6.52213251,9.79511074 C6.52873734,9.82711873 6.53144701,9.85455415 6.53144701,9.88156619 L6.53144701,12.893366 C6.53144701,13.0037004 6.48843097,13.10743 6.41044324,13.1854177 C6.33254019,13.2633208 6.22881058,13.3063368 6.11847615,13.3063368 C5.8906944,13.3063368 5.70533594,13.1209784 5.70533594,12.8932813 L5.70533594,10.8785559 L3.39855879,13.1853331 C3.32057106,13.2634055 3.21684145,13.3064215 3.10650702,13.3064215 C2.99617259,13.3064215 2.89244298,13.2634055 2.81445525,13.1853331 C2.65339916,13.0243616 2.65339916,12.7622856 2.81445525,12.6013142 L5.12123239,10.2944524 L3.1065917,10.2944524 C2.87889462,10.2944524 2.69353616,10.1091786 2.69353616,9.88139684 C2.69345149,9.77114708 2.73646752,9.66741747 2.81445525,9.58934506 C2.89252766,9.51135733 2.99617259,9.4683413 3.10650702,9.4683413 L6.11822212,9.4683413 C6.14531883,9.4683413 6.17275425,9.47113565 6.19985097,9.47647031 L6.21018159,9.47901063 C6.23033477,9.48315982 6.25472181,9.49078077 6.27741531,9.50026462 C6.30612089,9.51279685 6.32822165,9.52473634 6.34837483,9.53836937 C6.37335462,9.55564353 6.39308441,9.57190155 6.41052792,9.58934506 C6.42788675,9.60661922 6.44380607,9.62592563 6.45904797,9.64802639 C6.47505197,9.67165133 6.48673743,9.69307467 6.49715273,9.71703833 Z M9.49923155,6.27429919 C9.49084851,6.25465407 9.48322756,6.23009768 9.47789289,6.20469451 C9.47128807,6.17277119 9.4685784,6.14533577 9.4685784,6.11832373 L9.4685784,3.10652396 C9.4685784,2.99618952 9.51159443,2.89245992 9.58958216,2.81447219 C9.66748521,2.73648446 9.77121482,2.6935531 9.88154925,2.6935531 C10.109331,2.6935531 10.2946895,2.87882688 10.2946895,3.10660863 L10.2946895,5.12133401 L12.6014666,2.81455686 C12.6794543,2.73648446 12.7831839,2.6935531 12.8935184,2.6935531 C13.0038528,2.6935531 13.1075824,2.73648446 13.1855702,2.81455686 C13.3466262,2.97552828 13.3466262,3.23760431 13.1855702,3.39866041 L10.878793,5.70543755 L12.8934337,5.70543755 C13.1211308,5.70543755 13.3064892,5.89071133 13.3064892,6.11849308 C13.3065739,6.22874284 13.2636426,6.33247245 13.1855702,6.41046018 C13.1075824,6.48853259 13.0039375,6.53146394 12.8936031,6.53146394 L9.88180329,6.53146394 L9.88121055,6.43543996 L9.88121055,6.53146394 C9.85419851,6.53146394 9.82693244,6.52875427 9.80000508,6.52333493 L9.79128333,6.521218 C9.76985999,6.5167301 9.74547294,6.50910915 9.72261009,6.4996253 C9.69390451,6.48709307 9.67180375,6.47506891 9.65165057,6.46152055 C9.62684014,6.44441575 9.60702567,6.42798837 9.58949748,6.41054486 C9.57222333,6.39335538 9.55638869,6.37421832 9.54106211,6.35194821 C9.52497343,6.32823859 9.51328797,6.30673057 9.50287268,6.28285159 L9.49923155,6.27429919 Z" />
            </g>
        </g>
    </g>
</svg>