<?xml version="1.0" encoding="UTF-8"?>
<svg width="22px" height="22px" viewBox="0 0 22 22" version="1.1"
    xmlns="http://www.w3.org/2000/svg"
    xmlns:xlink="http://www.w3.org/1999/xlink">
    <g stroke="none" stroke-width="1" fill="none" fill-rule="evenodd">
        <g transform="translate(-20.000000, -240.000000)" fill-rule="nonzero">
            <g transform="translate(20.000000, 237.000000)">
                <g transform="translate(0.000000, 3.000000)">
                    <rect x="0" y="0" width="22" height="22" />
                    <g transform="translate(1.357143, 0.785714)">
                        <rect fill="#9CC2FF" x="2.45535714" y="9.82142857" width="14.7321429" height="7.36607143" />
                        <path d="M19.6428571,7.60007359 L19.6428571,18.3899064 C19.6428571,18.6691464 19.5412487,18.9372168 19.3553269,19.1382696 C19.1737288,19.3348545 18.9229505,19.4465505 18.6613629,19.4487844 L0.981494293,19.4487844 C0.717744725,19.4465505 0.466966448,19.3348545 0.287530266,19.1382696 C0.10160844,18.9372168 0,18.6691464 0,18.3899064 L0,2.57124173 C0,1.98818866 0.438861985,1.51236373 0.981494293,1.51236373 L4.15121281,1.51236373 C4.22471679,1.51012981 4.28524948,1.44758006 4.28308759,1.36939286 L4.28308759,0.755064906 C4.28308759,0.337321896 4.52049464,5.32907052e-15 4.90747146,5.32907052e-15 C5.29444829,5.32907052e-15 5.51338877,0.339555816 5.51338877,0.755064906 L5.51338877,1.36939286 C5.51122689,1.44534614 5.56959769,1.51012981 5.64526355,1.51236373 L14.0078092,1.51236373 C14.0813132,1.51012981 14.139684,1.44758006 14.139684,1.36939286 L14.139684,0.755064906 C14.139684,0.337321896 14.3397613,5.32907052e-15 14.7267382,5.32907052e-15 C15.113715,5.32907052e-15 15.27165,0.339555816 15.27165,0.755064906 L15.27165,1.36939286 C15.2694882,1.44534614 15.327859,1.51012981 15.4035248,1.51236373 L18.6527153,1.51236373 C18.9121411,1.51236373 19.1629194,1.62405972 19.3466793,1.82287859 C19.5304393,2.02169745 19.6342096,2.29200175 19.6342096,2.57124173 L19.6342096,7.79414632 L19.6428571,7.60007359 Z M18.4286663,9.08311806 L18.4157149,9.08311806 L18.4157149,9.07194847 L1.32742963,9.07194847 C1.29289274,9.07194847 1.25835585,9.0875859 1.23461173,9.11439294 C1.20870906,9.14119998 1.19575773,9.17917662 1.19575773,9.21491934 L1.19575773,17.9986921 C1.19575773,18.0746454 1.25403873,18.1371952 1.32742963,18.1394291 L18.2991529,18.1394291 C18.3725438,18.1371952 18.4308248,18.0724115 18.4286663,17.9964582 L18.4286663,9.08311806 Z M4.2938837,2.98453927 C4.2938837,2.94656263 4.27877381,2.91081991 4.2550297,2.88401287 C4.23128558,2.85720583 4.19674869,2.8415684 4.16005324,2.84380232 L1.32527107,2.84380232 C1.25188018,2.84603624 1.19359917,2.90858599 1.19575773,2.98230535 L1.19575773,7.65117545 C1.19359917,7.72712872 1.25188018,7.7919124 1.32742963,7.79414632 L18.284043,7.79414632 C18.3574339,7.7919124 18.4157149,7.72936264 18.4157149,7.65117545 L18.4157149,2.98453927 C18.4157149,2.94656263 18.4027636,2.91081991 18.3768609,2.88401287 C18.3531168,2.85720583 18.3185799,2.84380232 18.284043,2.84380232 L15.3946944,2.84380232 C15.3601575,2.84380232 15.3256206,2.85720583 15.3018765,2.88401287 C15.2781324,2.91081991 15.2630225,2.94656263 15.2630225,2.98453927 L15.2630225,3.5966333 C15.2716567,4.00544063 15.1163658,4.34276253 14.7213501,4.35169821 C14.3263344,4.34276253 14.1267393,4.00544063 14.133215,3.5966333 L14.133215,2.98453927 C14.133215,2.94656263 14.1202636,2.91081991 14.0943609,2.88401287 C14.0706168,2.85720583 14.0360799,2.84380232 14.0015431,2.84380232 L5.65370154,2.84380232 C5.58031065,2.84603624 5.52202964,2.90858599 5.52202964,2.98453927 L5.52202964,3.5966333 C5.52202964,3.79545217 5.44863875,3.98756927 5.31696685,4.13054014 C5.18745351,4.27127709 5.10282575,4.34946429 4.91718995,4.34946429 C4.52217425,4.34052861 4.28524948,4.00097279 4.2938837,3.59216546 L4.2938837,2.98453927 Z M5.09533745,12.2767857 C5.0469117,12.2767857 4.99848596,12.2641106 4.96519325,12.2423817 C4.93190055,12.2206529 4.91071429,12.1916812 4.91071429,12.1608987 L4.91071429,11.1649942 C4.91071429,11.1016185 4.99243274,11.0491071 5.09231084,11.0491071 L14.5474383,11.0491071 C14.650343,11.0491071 14.7320614,11.0998077 14.7320614,11.1649942 L14.7320614,12.1590879 C14.735088,12.2206529 14.6533696,12.2731642 14.5474383,12.274975 L14.5444117,12.274975 L5.09533745,12.2767857 Z M5.09541736,15.9598214 C5.04699201,15.9598214 4.99856666,15.9471276 4.96527424,15.9253666 C4.93198181,15.9036057 4.91079572,15.8745912 4.91079572,15.8437632 L4.91079572,14.8482011 C4.90776914,14.7865452 4.98948691,14.7357697 5.09239077,14.7321429 L14.5474398,14.7321429 C14.6503437,14.7321429 14.7320614,14.7829183 14.7320614,14.8463877 L14.7320614,15.8419498 C14.735088,15.9036057 14.6533703,15.9561946 14.5474398,15.958008 L14.5444132,15.958008 L5.09541736,15.9598214 Z" fill="#4475DF" />
                    </g>
                </g>
            </g>
        </g>
    </g>
</svg>