<?xml version="1.0" encoding="UTF-8"?>
<svg width="22px" height="22px" viewBox="0 0 22 22" version="1.1"
    xmlns="http://www.w3.org/2000/svg"
    xmlns:xlink="http://www.w3.org/1999/xlink">
    <g stroke="none" stroke-width="1" fill="none" fill-rule="evenodd">
        <g transform="translate(-760.000000, -86.000000)" fill-rule="nonzero">
            <g transform="translate(760.000000, 84.000000)">
                <g transform="translate(0.000000, 2.000000)">
                    <rect x="0" y="0" width="22" height="22"></rect>
                    <g transform="translate(1.000000, 2.000000)">
                        <rect fill="#9CC2FF" x="2.45535714" y="8.82142857" width="14.7321429" height="7.36607143"></rect>
                        <path d="M19.6428571,6.60007359 L19.6428571,17.3899064 C19.6428571,17.6691464 19.5412487,17.9372168 19.3553269,18.1382696 C19.1737288,18.3348545 18.9229505,18.4465505 18.6613629,18.4487844 L0.981494293,18.4487844 C0.717744725,18.4465505 0.466966448,18.3348545 0.287530266,18.1382696 C0.10160844,17.9372168 0,17.6691464 0,17.3899064 L0,1.57124173 C0,0.988188657 0.438861985,0.512363731 0.981494293,0.512363731 L4.15121281,0.512363731 C4.22471679,0.510129811 5.56959769,0.510129811 5.64526355,0.512363731 L14.0078092,0.512363731 C14.0813132,0.510129811 15.327859,0.510129811 15.4035248,0.512363731 L18.6527153,0.512363731 C18.9121411,0.512363731 19.1629194,0.624059723 19.3466793,0.822878588 C19.5304393,1.02169745 19.6342096,1.29200175 19.6342096,1.57124173 L19.6342096,6.79414632 L19.6428571,6.60007359 Z M18.4286663,8.08311806 L18.4157149,8.08311806 L18.4157149,8.07194847 L1.32742963,8.07194847 C1.29289274,8.07194847 1.25835585,8.0875859 1.23461173,8.11439294 C1.20870906,8.14119998 1.19575773,8.17917662 1.19575773,8.21491934 L1.19575773,16.9986921 C1.19575773,17.0746454 1.25403873,17.1371952 1.32742963,17.1394291 L18.2991529,17.1394291 C18.3725438,17.1371952 18.4308248,17.0724115 18.4286663,16.9964582 L18.4286663,8.08311806 Z M4.16005324,1.84380232 L1.32527107,1.84380232 C1.25188018,1.84603624 1.19359917,1.90858599 1.19575773,1.98230535 L1.19575773,6.65117545 C1.19359917,6.72712872 1.25188018,6.7919124 1.32742963,6.79414632 L18.284043,6.79414632 C18.3574339,6.7919124 18.4157149,6.72936264 18.4157149,6.65117545 L18.4157149,1.98453927 C18.4157149,1.94656263 18.4027636,1.91081991 18.3768609,1.88401287 C18.3531168,1.85720583 18.3185799,1.84380232 18.284043,1.84380232 L15.3946944,1.84380232 C15.3601575,1.84380232 14.0360799,1.84380232 14.0015431,1.84380232 L5.65370154,1.84380232 C5.58031065,1.84603624 4.19674869,1.8415684 4.16005324,1.84380232 Z M4.96519325,11.2423817 C4.93190055,11.2206529 4.91071429,11.1916812 4.91071429,11.1608987 L4.91071429,10.1649942 C4.91071429,10.1016185 4.99243274,10.0491071 5.09231084,10.0491071 L14.5474383,10.0491071 C14.650343,10.0491071 14.7320614,10.0998077 14.7320614,10.1649942 L14.7320614,11.1590879 C14.735088,11.2206529 14.6533696,11.2731642 14.5474383,11.274975 L14.5444117,11.274975 L5.09533745,11.2767857 C5.0469117,11.2767857 4.99848596,11.2641106 4.96519325,11.2423817 Z M4.96527424,14.9253666 C4.93198181,14.9036057 4.91079572,14.8745912 4.91079572,14.8437632 L4.91079572,13.8482011 C4.90776914,13.7865452 4.98948691,13.7357697 5.09239077,13.7321429 L14.5474398,13.7321429 C14.6503437,13.7321429 14.7320614,13.7829183 14.7320614,13.8463877 L14.7320614,14.8419498 C14.735088,14.9036057 14.6533703,14.9561946 14.5474398,14.958008 L14.5444132,14.958008 L5.09541736,14.9598214 C5.04699201,14.9598214 4.99856666,14.9471276 4.96527424,14.9253666 Z" fill="#4475DF"></path>
                    </g>
                </g>
            </g>
        </g>
    </g>
</svg>