<?xml version="1.0" encoding="UTF-8"?>
<svg width="16px" height="16px" viewBox="0 0 12 12" version="1.1"
    xmlns="http://www.w3.org/2000/svg"
    xmlns:xlink="http://www.w3.org/1999/xlink">
    <g stroke="none" stroke-width="1">
        <g transform="translate(-684.000000, -14.000000)">
            <g transform="translate(684.000000, 10.000000)">
                <g transform="translate(0.000000, 4.000000)">
                    <g transform="translate(0.750000, 0.750000)">
                        <path d="M7.59051908,8.17800099 L2.89100921,8.17800099 C2.56654539,8.17800099 2.30356184,7.91494836 2.30356184,7.59055362 L2.30356184,2.89097467 C2.30356184,2.56657993 2.56654539,2.3035273 2.89100921,2.3035273 L7.59051908,2.3035273 C7.91491382,2.3035273 8.17796645,2.56657993 8.17796645,2.89097467 L8.17796645,7.59055362 C8.17796645,7.91494836 7.91491382,8.17800099 7.59051908,8.17800099" opacity="0.4" />
                        <path d="M7.83258553,8.523375 L2.89102303,8.523375 C2.37583224,8.523375 1.95818092,8.10572368 1.95818092,7.59053289 L1.95818092,2.64897039 L0.690789474,2.64897039 L0.690789474,9.79076645 L7.83258553,9.79076645 L7.83258553,8.523375 Z M7.83258553,7.83258553 L7.83258553,2.64897039 L2.64890132,2.64897039 L2.64890132,7.83258553 L7.83258553,7.83258553 Z M1.95818092,1.95818092 L1.95818092,0.932842105 C1.95818092,0.417651316 2.37583224,6.75015599e-14 2.89102303,6.75015599e-14 L9.54871382,6.75015599e-14 C10.0639046,6.75015599e-14 10.4814868,0.417651316 10.4814868,0.932842105 L10.4814868,7.59053289 C10.4814868,8.10572368 10.0639046,8.523375 9.54871382,8.523375 L8.523375,8.523375 L8.523375,9.54871382 C8.523375,10.0639046 8.10572368,10.4815559 7.59053289,10.4815559 L0.932842105,10.4815559 C0.417651316,10.4815559 -1.59872116e-13,10.0639046 -1.59872116e-13,9.54871382 L-1.59872116e-13,2.89102303 C-1.59872116e-13,2.37583224 0.417651316,1.95818092 0.932842105,1.95818092 L1.95818092,1.95818092 Z M2.64890132,1.95818092 L7.59053289,1.95818092 C8.10572368,1.95818092 8.523375,2.37583224 8.523375,2.89102303 L8.523375,7.83258553 L9.79069737,7.83258553 L9.79069737,0.690789474 L2.64890132,0.690789474 L2.64890132,1.95818092 Z" />
                    </g>
                </g>
            </g>
        </g>
    </g>
</svg>