<?xml version="1.0" encoding="UTF-8"?>
<svg width="16px" height="16px" viewBox="0 0 16 16" version="1.1"
    xmlns="http://www.w3.org/2000/svg"
    xmlns:xlink="http://www.w3.org/1999/xlink">
    <g stroke="none" stroke-width="1">
        <g transform="translate(-70.000000, -192.000000)">
            <g transform="translate(70.000000, 192.000000)">
                <g>
                    <path d="M5.86328989,11.8109857 L5.86337067,5.67563137 C5.86337067,5.39922654 6.09447855,5.17436281 6.37873882,5.17436281 C6.66291831,5.17436281 6.89410697,5.39922654 6.89410697,5.67563137 L6.89410697,11.8138141 C6.89410697,12.090219 6.66291831,12.3150827 6.37873882,12.3150827 C6.10554523,12.3150827 5.87427579,12.0888833 5.86328989,11.8109857 Z M9.10598952,11.8138141 L9.10598952,5.67563137 C9.10598952,5.39922654 9.3370974,5.17436281 9.62135766,5.17436281 C9.90545638,5.17436281 10.136645,5.39922654 10.136645,5.67563137 L10.136645,11.8138141 C10.136645,12.090219 9.90545638,12.3150827 9.62135766,12.3150827 C9.3370974,12.3150827 9.10598952,12.090219 9.10598952,11.8138141 Z M5.63977521,1.79025006 C5.48290296,1.79025006 5.35995777,1.90983169 5.35995777,2.06241218 L5.35995777,2.71516127 L10.6527402,2.71516127 L10.6527402,2.06241218 C10.6527402,1.90983169 10.529795,1.79025006 10.3729228,1.79025006 L5.63977521,1.79025006 Z M3.39097679,13.1642536 C3.39097679,13.7340341 3.86757116,14.1975111 4.45329756,14.1975111 L11.5467181,14.1975111 C12.1325253,14.1975111 12.6090389,13.7340341 12.6090389,13.1642536 L12.6090389,3.70536309 L3.39097679,3.70536309 L3.39097679,13.1642536 Z M4.45329756,15.2000482 C3.2991314,15.2000482 2.36024049,14.2867652 2.36024049,13.1642536 L2.36024049,3.71769838 L0.515335611,3.71769838 C0.231156121,3.71769838 4.82412063e-05,3.49283465 4.82412063e-05,3.21642982 C4.82412063e-05,2.940025 0.231156121,2.71516127 0.515335611,2.71516127 L4.34190373,2.71516127 L4.34190373,2.06241218 C4.34190373,1.36637172 4.92415665,0.800048241 5.63977521,0.800048241 L10.3729228,0.800048241 C11.0885413,0.800048241 11.6707942,1.36637172 11.6707942,2.06241218 L11.6707942,2.71516127 L15.4846801,2.71516127 C15.7736255,2.71516127 16.0000482,2.9299682 16.0000482,3.20409453 C16.0000482,3.48049936 15.7688596,3.70536309 15.4846801,3.70536309 L13.6397752,3.70536309 L13.6397752,13.1642536 C13.6397752,14.2867652 12.7008035,15.2000482 11.5467181,15.2000482 L4.45329756,15.2000482 Z"></path>
                </g>
            </g>
        </g>
    </g>
</svg>